<svg width="57" height="20" viewBox="0 0 57 20" fill="none" xmlns="http://www.w3.org/2000/svg">
<path fill-rule="evenodd" clip-rule="evenodd" d="M23.1201 15.7716V4.22842C23.1201 4.19434 23.1479 4.16669 23.1822 4.16669H25.6063C25.6406 4.16669 25.6685 4.19434 25.6685 4.22842V15.7716C25.6685 15.8055 25.6406 15.8332 25.6063 15.8332H23.1822C23.1479 15.8332 23.1201 15.8055 23.1201 15.7716Z" fill="#222222"/>
<path fill-rule="evenodd" clip-rule="evenodd" d="M10.2438 4.16669H7.26047H7.22933H4.74316H4.71214H1.72867C1.69435 4.16669 1.6665 4.19434 1.6665 4.22831V6.45068C1.6665 6.48476 1.69435 6.51231 1.72867 6.51231H4.681C4.69821 6.51231 4.71214 6.52614 4.71214 6.54323V15.7715C4.71214 15.8056 4.73998 15.8332 4.77419 15.8332H7.1983C7.23262 15.8332 7.26047 15.8056 7.26047 15.7715V6.54323C7.26047 6.52614 7.27439 6.51231 7.29149 6.51231H10.2438C10.2781 6.51231 10.306 6.48476 10.306 6.45068V4.22831C10.306 4.19434 10.2781 4.16669 10.2438 4.16669Z" fill="#222222"/>
<path fill-rule="evenodd" clip-rule="evenodd" d="M41.015 13.4567V4.22842C41.015 4.19434 40.9871 4.16669 40.9529 4.16669H38.591C38.5567 4.16669 38.5288 4.19434 38.5288 4.22842V13.4876V13.9813C38.5288 15.0042 39.3636 15.8332 40.3935 15.8332H41.015H45.8631C45.8974 15.8332 45.9251 15.8055 45.9251 15.7716V13.5493C45.9251 13.5152 45.8974 13.4876 45.8631 13.4876H41.046C41.0289 13.4876 41.015 13.4737 41.015 13.4567Z" fill="#222222"/>
<path fill-rule="evenodd" clip-rule="evenodd" d="M49.9657 13.4567V11.1778C49.9657 11.1608 49.9796 11.1469 49.9968 11.1469H54.3756C54.4099 11.1469 54.4376 11.1193 54.4376 11.0852V8.86305C54.4376 8.82886 54.4099 8.80132 54.3756 8.80132H49.9968C49.9796 8.80132 49.9657 8.78749 49.9657 8.77039V6.54323C49.9657 6.52614 49.9796 6.51231 49.9968 6.51231H54.7803C54.8146 6.51231 54.8424 6.48465 54.8424 6.45058V4.22842C54.8424 4.19434 54.8146 4.16669 54.7803 4.16669H49.9657H47.5417C47.5073 4.16669 47.4795 4.19434 47.4795 4.22842V6.51231V8.80132V11.1469V13.4876V13.9813C47.4795 15.0042 48.3142 15.8332 49.3441 15.8332H49.9657H54.938C54.9724 15.8332 55.0001 15.8055 55.0001 15.7716V13.5493C55.0001 13.5152 54.9724 13.4876 54.938 13.4876H49.9968C49.9796 13.4876 49.9657 13.4737 49.9657 13.4567Z" fill="#222222"/>
<path fill-rule="evenodd" clip-rule="evenodd" d="M17.6416 8.28016C17.6416 8.91092 17.1269 9.42213 16.4918 9.42213H14.9007C14.8835 9.42213 14.8696 9.4083 14.8696 9.39131V6.54272C14.8696 6.52574 14.8835 6.51191 14.9007 6.51191H16.4918C17.1269 6.51191 17.6416 7.02311 17.6416 7.65387V8.28016ZM21.0372 15.7445L18.7652 11.1475C18.7587 11.1343 18.7626 11.1185 18.7745 11.1097C19.5968 10.5022 20.1299 9.53014 20.1299 8.43402V7.50002C20.1299 5.65903 18.6272 4.16669 16.7735 4.16669H14.8691H12.445C12.4107 4.16669 12.3828 4.19434 12.3828 4.22831V11.7673V15.7717C12.3828 15.8057 12.4107 15.8334 12.445 15.8334H14.8069C14.8412 15.8334 14.8691 15.8057 14.8691 15.7717V11.7984C14.8691 11.7812 14.883 11.7673 14.9001 11.7673H16.3432C16.368 11.7673 16.3905 11.782 16.4004 11.8046L18.1356 15.7776C18.1504 15.8115 18.184 15.8334 18.2213 15.8334H20.9814C21.0275 15.8334 21.0574 15.7854 21.0372 15.7445Z" fill="#222222"/>
<path fill-rule="evenodd" clip-rule="evenodd" d="M33.7469 8.49776C33.7469 9.1284 33.232 9.6397 32.597 9.6397H31.0058C30.9887 9.6397 30.9748 9.62587 30.9748 9.60878V6.54171C30.9748 6.52472 30.9887 6.5109 31.0058 6.5109H32.597C33.232 6.5109 33.7469 7.02209 33.7469 7.65284V8.49776ZM32.8782 4.16669H30.9745H28.5504C28.5161 4.16669 28.4883 4.19434 28.4883 4.22831V11.9854V15.7716C28.4883 15.8055 28.5161 15.8332 28.5504 15.8332H30.9123C30.9466 15.8332 30.9745 15.8055 30.9745 15.7716V12.0162C30.9745 11.9993 30.9884 11.9854 31.0055 11.9854H32.8782C34.7318 11.9854 36.2346 10.493 36.2346 8.65215V7.49997C36.2346 5.65901 34.7318 4.16669 32.8782 4.16669Z" fill="#222222"/>
</svg>
